<svg width="236" height="87" viewBox="0 0 236 87" fill="none" xmlns="http://www.w3.org/2000/svg">
<path d="M57.774 54.2813C40.215 55.7842 34.6554 63.9519 25.3333 66.4687C21.2634 67.5649 17.4496 65.6195 14.6186 62.4697C8.01478 55.3879 7.78953 35.0894 13.8456 28.6509C14.7876 27.6112 15.8729 26.865 17.1885 26.8341C20.1321 26.9113 21.6423 30.4471 22.6149 33.3138C23.7053 36.6025 24.5295 40.586 27.2581 42.6859C29.6181 44.4975 31.9832 43.6329 34.3432 42.1455C40.6296 38.1877 54.2673 32.1712 61.506 46.4738C64.8489 53.0873 63.0725 53.8284 57.774 54.2813ZM34.8193 41.1264C33.304 42.0425 32.2801 42.3771 31.1078 42.3771C26.6233 42.1558 25.3537 36.3451 24.0176 32.2072C21.1662 22.4182 13.8968 22.6138 10.2775 32.619C7.4619 40.5963 7.75882 55.99 14.0658 62.9123C18.1868 67.5237 23.6388 68.7486 29.5208 66.3297C36.9182 63.2829 44.2438 55.9283 61.9565 54.7291C66.528 54.4203 69.7122 54.6313 65.2635 45.5989C60.9019 36.7363 50.9705 31.3477 34.8193 41.1264ZM49.4143 53.6689C35.7356 55.2232 32.1675 59.3457 23.3163 60.8948C15.5913 62.2484 11.8235 57.3179 11.7518 50.1434C11.716 46.3297 12.0232 42.5932 13.3644 39.4898C14.2091 37.6627 15.5913 35.0533 17.4803 35.3158C22.2105 35.9849 20.731 46.2113 25.5124 47.9509C27.5857 48.7023 29.1932 48.0384 31.461 46.6642C37.1434 43.2263 42.5749 40.4934 47.8222 43.8439C50.1105 45.3055 52.2299 48.1774 52.4244 50.9926C52.5422 52.727 51.375 53.4476 49.4143 53.6689ZM44.2899 41.1316C39.6826 40.972 36.4933 42.8248 31.7477 45.6555C28.0618 47.8531 24.6524 47.3076 23.1832 41.5021C20.3522 30.2978 15.2329 32.3925 12.6528 38.5325C11.3679 41.5896 10.7689 45.4908 10.9174 49.6648C11.3269 61.4095 18.1765 62.5623 23.8436 61.78C33.7749 60.411 35.1571 56.4635 50.6839 54.4203C54.8612 53.8696 56.3202 52.6807 54.6769 48.4193C53.1411 44.4151 49.6498 41.3168 44.2899 41.1316ZM74.5038 53.1285C74.3861 54.8011 71.3503 54.8063 69.7787 54.8783C46.8035 55.918 42.4111 64.4409 31.7477 70.6838C28.8707 72.3719 25.41 73.0513 22.1593 72.0322C10.1649 67.7348 6.91414 50.6066 7.02676 39.0472C7.09843 33.0101 8.60862 25.6246 12.2945 21.2602C13.5794 19.7677 15.0998 18.7023 16.9581 18.6663C20.7976 18.7281 22.6866 23.0719 23.905 26.34C25.5176 30.761 27.3451 39.392 32.8944 39.6081C34.5479 39.5618 35.8687 38.8156 37.4403 37.7965C41.546 35.0894 45.2984 33.3241 49.7624 32.4851C54.3134 31.6411 58.7774 32.2381 62.7756 34.6622C68.8726 37.812 74.9287 48.7538 74.5038 53.1285ZM56.6581 30.622C44.3053 30.4728 38.8532 37.0863 34.466 38.0127C29.3519 39.0883 27.2018 29.9067 25.4049 25.0276C21.4273 12.6344 11.7877 14.3843 7.79465 27.1635C4.23676 37.8531 5.95684 57.0811 13.8098 66.7878C19.0929 73.3755 25.4305 75.3313 32.9047 71.7749C41.9094 67.4929 48.0782 55.7945 74.6369 55.2849C78.9064 55.2026 79.3466 54.4718 78.6863 50.8073C78.1385 47.7553 71.6473 30.8073 56.6581 30.622ZM83.867 55.5165C69.2617 56.0569 58.675 57.7914 48.9484 65.5371C39.4931 73.0616 31.5788 80.6323 23.6183 77.8583C13.8405 74.4512 8.8953 62.2278 6.37662 52.3822C4.0883 42.9638 3.60197 32.655 6.20768 23.3601C7.8868 17.7605 10.8765 11.286 16.7841 10.7919C23.8026 10.2052 25.9373 22.9792 28.9987 29.7728C30.3092 32.6859 32.2494 35.6195 35.495 35.6864C37.3277 35.6349 38.7765 34.7394 40.5426 33.6277C59.5658 21.6411 74.2274 26.7981 84.2304 47.251C85.0188 48.8567 85.9044 51.1985 86.058 52.7116C86.2474 54.5592 85.9095 55.4445 83.867 55.5165ZM81.809 35.9077C71.4118 23.3549 57.6205 22.1918 41.546 32.1866C37.9574 34.4151 34.5991 35.2438 32.3108 31.7749C27.0329 23.7667 26.3725 7.30244 16.6919 8.45015C2.58324 10.128 1.47748 38.0333 5.30157 52.13C8.3117 64.4306 16.7636 82.341 31.1129 79.1861C39.36 77.1583 43.7677 71.5845 51.4569 66.0312C61.977 58.4398 70.5313 56.8135 86.3191 56.2937C90.9878 56.1393 91.2899 54.5798 90.394 51.3477C89.0374 46.4738 85.5307 40.2618 81.809 35.9077ZM95.0218 56.9319C67.2345 57.0708 59.5095 64.2402 49.5218 73.5454C46.0151 76.8135 38.1724 84.6262 29.2444 84.6262C14.076 84.6262 4.49785 57.3488 2.57812 44.0703C0.786378 32.0219 1.9894 11.0852 12.704 4.02915C17.0759 1.66682 24.0125 0.98746 30.4116 23.1285C31.8757 28.2031 34.7988 32.0322 38.0597 32.0322C43.65 32.0322 49.0662 22.5572 63.7943 22.5726C75.7529 22.5829 85.8174 30.7404 92.0322 40.7404C94.1976 44.235 97.5559 50.6787 97.5456 54.9298C97.5354 56.2782 96.573 56.9267 95.0218 56.9319ZM26.1728 6.7466C38.8993 16.3709 48.2369 19.9993 59.0641 21.7028C59.0641 21.7131 59.0641 21.7234 59.0641 21.744C46.0253 24.9607 43.778 30.725 38.4898 30.2721C32.8279 29.7883 30.1351 13.9571 26.0909 6.8907C26.096 6.88041 26.1216 6.8238 26.1728 6.7466ZM102.348 54.1218C101.764 49.2376 97.8323 40.2412 91.0902 32.8454C84.64 25.7018 75.9423 20.8022 65.243 20.8022C64.4393 20.8022 62.7909 20.7095 62.0589 20.6323C47.5355 19.2324 34.5787 11.6205 23.0859 2.96379C21.4375 1.72344 19.2209 0.477939 17.0196 0.431619C14.4395 0.375006 12.2126 1.31685 10.3082 2.72189C-0.805714 10.9206 -1.01048 39.0677 3.4228 53.4579C7.30832 66.5613 15.8012 86.0261 29.8024 86.0261C42.1705 86.0261 49.8443 76.0363 58.5419 69.0935C69.4664 60.375 79.1623 58.0899 99.1633 57.884C101.687 57.848 102.614 56.34 102.348 54.1218ZM41.3668 52.7064C40.8549 53.4682 39.5648 53.7615 38.4949 53.9314C35.1981 54.4563 31.9985 54.7651 29.1113 55.0791C24.6166 55.5217 19.7993 55.9489 16.5998 55.6092C13.4002 55.2643 13.1494 52.9483 13.8149 49.7162C14.4343 46.7157 15.8933 44.2093 17.383 43.849C18.8983 43.4836 19.8096 46.4841 20.127 47.6884C20.5467 49.2788 21.0228 51.0286 22.2259 52.0065C24.12 53.5505 26.526 52.3719 28.758 51.0647C31.5173 49.3611 35.0445 46.5562 38.6024 47.5855C41.9248 48.5479 41.9965 51.7955 41.3668 52.7064ZM38.6024 46.2113C34.9677 46.1547 31.3433 48.6097 28.5789 50.2618C24.8879 52.4646 22.8658 52.7528 21.1662 46.304C20.5211 43.8593 19.5894 42.269 17.7311 42.4285C15.3814 42.6292 12.8576 46.8958 12.7911 51.358C12.7501 54.06 12.8832 56.4275 18.6936 56.4224C24.9596 56.4172 33.7391 55.4393 39.8566 54.5284C41.2439 54.3225 44.5305 53.674 44.0186 50.1743C43.6756 47.8943 41.6484 46.2113 38.6024 46.2113Z" fill="#EC681C"/>
<path d="M57.774 54.2813C40.215 55.7842 34.6554 63.9519 25.3333 66.4687C21.2634 67.5649 17.4496 65.6195 14.6186 62.4697C8.01478 55.3879 7.78953 35.0894 13.8456 28.6509C14.7876 27.6112 15.8729 26.865 17.1885 26.8341C20.1321 26.9113 21.6423 30.4471 22.6149 33.3138C23.7053 36.6025 24.5295 40.586 27.2581 42.6859C29.6181 44.4975 31.9832 43.6329 34.3432 42.1455C40.6296 38.1877 54.2673 32.1712 61.506 46.4738C64.8489 53.0873 63.0725 53.8284 57.774 54.2813ZM34.8193 41.1264C33.304 42.0425 32.2801 42.3771 31.1078 42.3771C26.6233 42.1558 25.3537 36.3451 24.0176 32.2072C21.1662 22.4182 13.8968 22.6138 10.2775 32.619C7.4619 40.5963 7.75882 55.99 14.0658 62.9123C18.1868 67.5237 23.6388 68.7486 29.5208 66.3297C36.9182 63.2829 44.2438 55.9283 61.9565 54.7291C66.528 54.4203 69.7122 54.6313 65.2635 45.5989C60.9019 36.7363 50.9705 31.3477 34.8193 41.1264ZM49.4143 53.6689C35.7356 55.2232 32.1675 59.3457 23.3163 60.8948C15.5913 62.2484 11.8235 57.3179 11.7518 50.1434C11.716 46.3297 12.0232 42.5932 13.3644 39.4898C14.2091 37.6627 15.5913 35.0533 17.4803 35.3158C22.2105 35.9849 20.731 46.2113 25.5124 47.9509C27.5857 48.7023 29.1932 48.0384 31.461 46.6642C37.1434 43.2263 42.5749 40.4934 47.8222 43.8439C50.1105 45.3055 52.2299 48.1774 52.4244 50.9926C52.5422 52.727 51.375 53.4476 49.4143 53.6689ZM44.2899 41.1316C39.6826 40.972 36.4933 42.8248 31.7477 45.6555C28.0618 47.8531 24.6524 47.3076 23.1832 41.5021C20.3522 30.2978 15.2329 32.3925 12.6528 38.5325C11.3679 41.5896 10.7689 45.4908 10.9174 49.6648C11.3269 61.4095 18.1765 62.5623 23.8436 61.78C33.7749 60.411 35.1571 56.4635 50.6839 54.4203C54.8612 53.8696 56.3202 52.6807 54.6769 48.4193C53.1411 44.4151 49.6498 41.3168 44.2899 41.1316ZM74.5038 53.1285C74.3861 54.8011 71.3503 54.8063 69.7787 54.8783C46.8035 55.918 42.4111 64.4409 31.7477 70.6838C28.8707 72.3719 25.41 73.0513 22.1593 72.0322C10.1649 67.7348 6.91414 50.6066 7.02676 39.0472C7.09843 33.0101 8.60862 25.6246 12.2945 21.2602C13.5794 19.7677 15.0998 18.7023 16.9581 18.6663C20.7976 18.7281 22.6866 23.0719 23.905 26.34C25.5176 30.761 27.3451 39.392 32.8944 39.6081C34.5479 39.5618 35.8687 38.8156 37.4403 37.7965C41.546 35.0894 45.2984 33.3241 49.7624 32.4851C54.3134 31.6411 58.7774 32.2381 62.7756 34.6622C68.8726 37.812 74.9287 48.7538 74.5038 53.1285ZM56.6581 30.622C44.3053 30.4728 38.8532 37.0863 34.466 38.0127C29.3519 39.0883 27.2018 29.9067 25.4049 25.0276C21.4273 12.6344 11.7877 14.3843 7.79465 27.1635C4.23676 37.8531 5.95684 57.0811 13.8098 66.7878C19.0929 73.3755 25.4305 75.3313 32.9047 71.7749C41.9094 67.4929 48.0782 55.7945 74.6369 55.2849C78.9064 55.2026 79.3466 54.4718 78.6863 50.8073C78.1385 47.7553 71.6473 30.8073 56.6581 30.622ZM83.867 55.5165C69.2617 56.0569 58.675 57.7914 48.9484 65.5371C39.4931 73.0616 31.5788 80.6323 23.6183 77.8583C13.8405 74.4512 8.8953 62.2278 6.37662 52.3822C4.0883 42.9638 3.60197 32.655 6.20768 23.3601C7.8868 17.7605 10.8765 11.286 16.7841 10.7919C23.8026 10.2052 25.9373 22.9792 28.9987 29.7728C30.3092 32.6859 32.2494 35.6195 35.495 35.6864C37.3277 35.6349 38.7765 34.7394 40.5426 33.6277C59.5658 21.6411 74.2274 26.7981 84.2304 47.251C85.0188 48.8567 85.9044 51.1985 86.058 52.7116C86.2474 54.5592 85.9095 55.4445 83.867 55.5165ZM81.809 35.9077C71.4118 23.3549 57.6205 22.1918 41.546 32.1866C37.9574 34.4151 34.5991 35.2438 32.3108 31.7749C27.0329 23.7667 26.3725 7.30244 16.6919 8.45015C2.58324 10.128 1.47748 38.0333 5.30157 52.13C8.3117 64.4306 16.7636 82.341 31.1129 79.1861C39.36 77.1583 43.7677 71.5845 51.4569 66.0312C61.977 58.4398 70.5313 56.8135 86.3191 56.2937C90.9878 56.1393 91.2899 54.5798 90.394 51.3477C89.0374 46.4738 85.5307 40.2618 81.809 35.9077ZM95.0218 56.9319C67.2345 57.0708 59.5095 64.2402 49.5218 73.5454C46.0151 76.8135 38.1724 84.6262 29.2444 84.6262C14.076 84.6262 4.49785 57.3488 2.57812 44.0703C0.786378 32.0219 1.9894 11.0852 12.704 4.02915C17.0759 1.66682 24.0125 0.98746 30.4116 23.1285C31.8757 28.2031 34.7988 32.0322 38.0597 32.0322C43.65 32.0322 49.0662 22.5572 63.7943 22.5726C75.7529 22.5829 85.8174 30.7404 92.0322 40.7404C94.1976 44.235 97.5559 50.6787 97.5456 54.9298C97.5354 56.2782 96.573 56.9267 95.0218 56.9319ZM26.1728 6.7466C38.8993 16.3709 48.2369 19.9993 59.0641 21.7028C59.0641 21.7131 59.0641 21.7234 59.0641 21.744C46.0253 24.9607 43.778 30.725 38.4898 30.2721C32.8279 29.7883 30.1351 13.9571 26.0909 6.8907C26.096 6.88041 26.1216 6.8238 26.1728 6.7466ZM102.348 54.1218C101.764 49.2376 97.8323 40.2412 91.0902 32.8454C84.64 25.7018 75.9423 20.8022 65.243 20.8022C64.4393 20.8022 62.7909 20.7095 62.0589 20.6323C47.5355 19.2324 34.5787 11.6205 23.0859 2.96379C21.4375 1.72344 19.2209 0.477939 17.0196 0.431619C14.4395 0.375006 12.2126 1.31685 10.3082 2.72189C-0.805714 10.9206 -1.01048 39.0677 3.4228 53.4579C7.30832 66.5613 15.8012 86.0261 29.8024 86.0261C42.1705 86.0261 49.8443 76.0363 58.5419 69.0935C69.4664 60.375 79.1623 58.0899 99.1633 57.884C101.687 57.848 102.614 56.34 102.348 54.1218ZM41.3668 52.7064C40.8549 53.4682 39.5648 53.7615 38.4949 53.9314C35.1981 54.4563 31.9985 54.7651 29.1113 55.0791C24.6166 55.5217 19.7993 55.9489 16.5998 55.6092C13.4002 55.2643 13.1494 52.9483 13.8149 49.7162C14.4343 46.7157 15.8933 44.2093 17.383 43.849C18.8983 43.4836 19.8096 46.4841 20.127 47.6884C20.5467 49.2788 21.0228 51.0286 22.2259 52.0065C24.12 53.5505 26.526 52.3719 28.758 51.0647C31.5173 49.3611 35.0445 46.5562 38.6024 47.5855C41.9248 48.5479 41.9965 51.7955 41.3668 52.7064ZM38.6024 46.2113C34.9677 46.1547 31.3433 48.6097 28.5789 50.2618C24.8879 52.4646 22.8658 52.7528 21.1662 46.304C20.5211 43.8593 19.5894 42.269 17.7311 42.4285C15.3814 42.6292 12.8576 46.8958 12.7911 51.358C12.7501 54.06 12.8832 56.4275 18.6936 56.4224C24.9596 56.4172 33.7391 55.4393 39.8566 54.5284C41.2439 54.3225 44.5305 53.674 44.0186 50.1743C43.6756 47.8943 41.6484 46.2113 38.6024 46.2113Z" fill="white"/>
<path d="M155.414 51.0393C152.445 48.4659 148.575 46.9322 148.575 43.0001H145.227V57.7608H148.575V49.6445C151.544 52.2487 155.414 53.8339 155.414 57.7505H158.762C158.762 57.7608 158.762 57.7711 158.762 57.7505V42.9898H155.414V51.0393ZM163.446 31.4922V25.6558H162.627V31.5179C162.627 33.7618 161.327 35.1926 159.187 35.1926C157.037 35.1926 155.737 33.7618 155.737 31.5179V25.6558H154.917V31.4922C154.917 34.2868 156.612 35.9749 159.187 35.9749C161.782 35.9749 163.446 34.2868 163.446 31.4922ZM151.744 75.4757C151.017 75.4757 150.223 75.3676 149.686 75.2338V66.7006H151.687C154.779 66.7006 156.525 68.6306 156.525 70.9929C156.525 73.4633 154.805 75.4757 151.744 75.4757ZM151.687 65.9286H148.877V75.8411C149.414 76.0418 150.54 76.2477 151.672 76.2477C155.163 76.2477 157.37 74.0037 157.37 70.9826C157.37 68.1056 155.168 65.9286 151.687 65.9286ZM143.164 30.7099C143.164 28.2086 145.073 26.2683 147.571 26.2683C150.059 26.2683 151.979 28.2137 151.979 30.7099C151.979 31.8164 151.605 32.8303 150.971 33.6023L147.315 30.7099V31.6569L150.459 34.1273C149.691 34.7912 148.687 35.1926 147.571 35.1926C145.068 35.1926 143.164 33.2214 143.164 30.7099ZM151.098 34.6265L152.655 35.8565V34.9404L151.595 34.1015C152.348 33.1854 152.788 31.9965 152.788 30.7099C152.788 27.7814 150.546 25.5117 147.561 25.5117C144.592 25.5117 142.324 27.7814 142.324 30.7099C142.324 33.6538 144.597 35.9749 147.561 35.9749C148.954 35.9749 150.187 35.4654 151.098 34.6265ZM117.46 72.2642C116.625 72.2642 116.052 72.1973 115.566 72.0737V66.6852H117.956C120.337 66.6852 121.233 67.8843 121.233 69.3048C121.238 71.0598 120.096 72.2642 117.46 72.2642ZM118.028 65.9286H114.752V76.0573H115.571V72.8149C116.057 72.9384 116.63 73.0053 117.465 73.0053C120.475 73.0053 122.088 71.5745 122.088 69.3048C122.082 67.3748 120.767 65.9286 118.028 65.9286ZM124.811 72.2076L126.787 67.3748L128.763 72.2076H124.811ZM126.695 65.7948L122.328 76.0624H123.255L124.519 72.9435H129.075L130.34 76.0624H131.266L126.9 65.7948H126.695ZM137.236 75.4654C134.737 75.4654 132.828 73.4942 132.828 70.9826C132.828 68.4813 134.737 66.5411 137.236 66.5411C139.718 66.5411 141.643 68.4865 141.643 70.9826C141.638 73.4942 139.718 75.4654 137.236 75.4654ZM137.236 65.7793C134.266 65.7793 131.993 68.049 131.993 70.9775C131.993 73.9214 134.266 76.2425 137.236 76.2425C140.22 76.2425 142.462 73.9214 142.462 70.9775C142.462 68.049 140.215 65.7793 137.236 65.7793ZM135.797 54.925C133.309 54.925 131.548 52.9744 131.548 50.4371C131.548 47.8586 133.309 45.9286 135.797 45.9286C138.305 45.9286 140.087 47.8586 140.087 50.4371C140.087 52.9744 138.305 54.925 135.797 54.925ZM135.797 42.7943C131.389 42.7943 128.139 46.083 128.139 50.4371C128.139 54.7912 131.389 58.1005 135.797 58.1005C140.246 58.1005 143.476 54.7912 143.476 50.4371C143.476 46.083 140.246 42.7943 135.797 42.7943ZM160.344 71.0084H165.463V70.2364H160.344V66.6954H165.755V65.9234H159.55V76.0521H165.934V75.2801H160.344V71.0084ZM212.545 72.2076L214.521 67.3748L216.497 72.2076H212.545ZM214.429 65.7948L210.062 76.0624H210.989L212.253 72.9435H216.809L218.074 76.0624H219L214.634 65.7948H214.429ZM212.381 57.7608V42.9898H208.951V50.3856H202.347V42.9898H198.918V57.7505H202.347V53.5148H208.951V57.7557H212.381V57.7608ZM223.638 71.7907C222.794 71.7907 222.133 71.7083 221.611 71.5899V66.6903H224.365C226.731 66.6903 227.55 67.663 227.55 69.0681C227.55 70.8179 226.244 71.7907 223.638 71.7907ZM228.41 69.0475C228.41 67.1278 227.145 65.9286 224.432 65.9286H220.792V76.0573H221.611V72.3156C222.133 72.4494 222.778 72.5318 223.638 72.5318C224.191 72.5318 224.698 72.4906 225.159 72.4083L227.616 76.0573H228.543L225.947 72.223C227.534 71.7238 228.41 70.6584 228.41 69.0475ZM201.083 70.9826C201.083 73.9523 203.382 76.2477 206.351 76.2477C207.144 76.2477 207.907 76.0984 208.542 75.7639V74.9662C207.912 75.3059 207.185 75.45 206.366 75.45C203.853 75.45 201.917 73.5045 201.917 70.9775C201.917 68.4659 203.853 66.5462 206.366 66.5462C207.185 66.5462 207.912 66.7057 208.542 67.03V66.2323C207.912 65.908 207.16 65.7742 206.366 65.7742C203.392 65.7793 201.083 68.0336 201.083 70.9826ZM174.074 72.2076L176.05 67.3748L178.026 72.2076H174.074ZM175.953 65.7948L171.586 76.0624H172.512L173.777 72.9435H178.333L179.597 76.0624H180.524L176.157 65.7948H175.953ZM198.232 71.7907C198.232 74.0346 196.926 75.4654 194.791 75.4654C192.641 75.4654 191.341 74.0346 191.341 71.7907V65.9286H190.522V71.7649C190.522 74.5596 192.216 76.2477 194.797 76.2477C197.392 76.2477 199.056 74.5596 199.056 71.7649V65.9286H198.237V71.7907H198.232ZM166.635 55.0434C166.011 55.0434 165.325 54.9868 164.716 54.9044V46.0418H166.656C169.594 46.0418 171.238 48.0284 171.238 50.4319C171.238 53.0362 169.63 55.0434 166.635 55.0434ZM174.688 50.3547C174.688 46.1396 171.494 43.0053 166.595 43.0053H161.424V57.4211C162.305 57.7557 164.204 58.0902 166.185 58.0902C171.376 58.0954 174.688 54.9044 174.688 50.3547ZM181.256 70.9826C181.256 73.7515 183.258 75.9389 185.93 76.222C186.227 76.4896 186.508 76.8962 186.508 77.3954C186.508 78.0182 186.094 78.327 185.515 78.327C185.285 78.327 184.978 78.26 184.804 78.1262V78.7335C185.034 78.8828 185.408 78.9754 185.73 78.9754C186.616 78.9754 187.21 78.4505 187.21 77.6116C187.21 77.0454 186.887 76.5565 186.565 76.2477C187.343 76.2477 188.095 76.0984 188.715 75.7639V74.9662C188.085 75.3059 187.358 75.45 186.539 75.45C184.026 75.45 182.091 73.5045 182.091 70.9775C182.091 68.4659 184.026 66.5462 186.539 66.5462C187.358 66.5462 188.085 66.7057 188.715 67.03V66.2323C188.085 65.908 187.333 65.7742 186.539 65.7742C183.565 65.7793 181.256 68.0336 181.256 70.9826ZM118.018 51.3635H121.601C123.03 51.3635 123.659 52.1509 123.659 53.1545C123.659 54.3949 122.758 55.2801 120.25 55.2801C119.507 55.2801 118.545 55.2029 118.018 55.0434V51.3635ZM118.018 45.8051H120.839C122.031 45.8051 122.543 46.4741 122.543 47.2616C122.543 48.049 122.036 48.7387 120.879 48.7387H118.018V45.8051ZM127.089 53.1906C127.089 51.1834 125.738 49.9018 124.268 49.5055C125.128 48.996 125.814 47.8535 125.814 46.7109C125.814 44.503 124.171 43.0104 121.269 43.0104H114.747V57.4263C115.724 57.802 117.762 58.0954 119.82 58.0954C124.504 58.0954 127.089 56.3043 127.089 53.1906ZM133.852 26.4124H136.606C138.971 26.4124 139.79 27.3851 139.79 28.7902C139.79 30.5452 138.485 31.5179 135.879 31.5179C135.034 31.5179 134.374 31.4355 133.852 31.3172V26.4124ZM133.852 32.048C134.374 32.1818 135.019 32.2642 135.879 32.2642C136.432 32.2642 136.939 32.223 137.394 32.1406L139.851 35.7896H140.778L138.183 31.9554C139.77 31.4561 140.64 30.3908 140.64 28.7799C140.64 26.8601 139.375 25.661 136.662 25.661H133.022V35.7896H133.841V32.048H133.852ZM126.777 27.102L128.753 31.9348H124.806L126.777 27.102ZM124.509 32.6656H129.065L130.33 35.7845H131.256L126.889 25.5169H126.685L122.318 35.7845H123.245L124.509 32.6656ZM180.084 42.9898H176.674V57.7608H180.084V42.9898ZM193.056 64.5647L197.075 63.4582V62.7428L193.056 63.8905V64.5647ZM221.709 45.9235C224.217 45.9235 225.998 47.8535 225.998 50.4319C225.998 52.9744 224.217 54.9198 221.709 54.9198C219.221 54.9198 217.46 52.9693 217.46 50.4319C217.46 47.8535 219.221 45.9235 221.709 45.9235ZM221.709 58.0954C226.157 58.0954 229.387 54.786 229.387 50.4319C229.387 46.0779 226.157 42.7891 221.709 42.7891C217.301 42.7891 214.05 46.0779 214.05 50.4319C214.05 54.786 217.301 58.0954 221.709 58.0954ZM186.078 49.6496C189.048 52.2539 192.918 53.839 192.918 57.7557H196.266C196.266 57.766 196.266 57.7763 196.266 57.7557V42.9898H192.918V51.0393C189.949 48.4659 186.078 46.9322 186.078 43.0001H182.73V57.7608H186.078V49.6496ZM115.571 26.4124H117.961C120.342 26.4124 121.238 27.6116 121.238 29.032C121.238 30.7871 120.096 31.9914 117.465 31.9914C116.63 31.9914 116.052 31.9245 115.571 31.801V26.4124ZM115.571 32.5472C116.052 32.6708 116.63 32.7377 117.465 32.7377C120.475 32.7377 122.088 31.3069 122.088 29.0372C122.088 27.1072 120.772 25.661 118.028 25.661H114.752V35.7896H115.571V32.5472ZM172.405 35.0176H166.815V30.7356H171.934V29.9636H166.815V26.4227H172.231V25.6507H166.026V35.7793H172.41V35.0176H172.405ZM125.886 63.2009C125.538 63.2009 125.282 63.2832 125.093 63.3758C124.919 63.4685 124.77 63.5766 124.729 63.6435V64.4515C124.78 64.3692 124.929 64.2353 125.134 64.1427C125.308 64.0501 125.548 63.978 125.886 63.978C126.275 63.978 126.582 64.0861 126.895 64.1942C127.192 64.3022 127.488 64.4103 127.877 64.4103C128.159 64.4103 128.389 64.3434 128.563 64.2508C128.779 64.1427 128.927 63.978 128.994 63.9008V63.0928C128.927 63.2009 128.763 63.3758 128.523 63.4994C128.348 63.5817 128.149 63.6486 127.877 63.6486C127.504 63.6486 127.207 63.5405 126.925 63.4479C126.613 63.3244 126.306 63.2009 125.886 63.2009Z" fill="#EC681C"/>
<path d="M155.414 51.0393C152.445 48.4659 148.575 46.9322 148.575 43.0001H145.227V57.7608H148.575V49.6445C151.544 52.2487 155.414 53.8339 155.414 57.7505H158.762C158.762 57.7608 158.762 57.7711 158.762 57.7505V42.9898H155.414V51.0393ZM163.446 31.4922V25.6558H162.627V31.5179C162.627 33.7618 161.327 35.1926 159.187 35.1926C157.037 35.1926 155.737 33.7618 155.737 31.5179V25.6558H154.917V31.4922C154.917 34.2868 156.612 35.9749 159.187 35.9749C161.782 35.9749 163.446 34.2868 163.446 31.4922ZM151.744 75.4757C151.017 75.4757 150.223 75.3676 149.686 75.2338V66.7006H151.687C154.779 66.7006 156.525 68.6306 156.525 70.9929C156.525 73.4633 154.805 75.4757 151.744 75.4757ZM151.687 65.9286H148.877V75.8411C149.414 76.0418 150.54 76.2477 151.672 76.2477C155.163 76.2477 157.37 74.0037 157.37 70.9826C157.37 68.1056 155.168 65.9286 151.687 65.9286ZM143.164 30.7099C143.164 28.2086 145.073 26.2683 147.571 26.2683C150.059 26.2683 151.979 28.2137 151.979 30.7099C151.979 31.8164 151.605 32.8303 150.971 33.6023L147.315 30.7099V31.6569L150.459 34.1273C149.691 34.7912 148.687 35.1926 147.571 35.1926C145.068 35.1926 143.164 33.2214 143.164 30.7099ZM151.098 34.6265L152.655 35.8565V34.9404L151.595 34.1015C152.348 33.1854 152.788 31.9965 152.788 30.7099C152.788 27.7814 150.546 25.5117 147.561 25.5117C144.592 25.5117 142.324 27.7814 142.324 30.7099C142.324 33.6538 144.597 35.9749 147.561 35.9749C148.954 35.9749 150.187 35.4654 151.098 34.6265ZM117.46 72.2642C116.625 72.2642 116.052 72.1973 115.566 72.0737V66.6852H117.956C120.337 66.6852 121.233 67.8843 121.233 69.3048C121.238 71.0598 120.096 72.2642 117.46 72.2642ZM118.028 65.9286H114.752V76.0573H115.571V72.8149C116.057 72.9384 116.63 73.0053 117.465 73.0053C120.475 73.0053 122.088 71.5745 122.088 69.3048C122.082 67.3748 120.767 65.9286 118.028 65.9286ZM124.811 72.2076L126.787 67.3748L128.763 72.2076H124.811ZM126.695 65.7948L122.328 76.0624H123.255L124.519 72.9435H129.075L130.34 76.0624H131.266L126.9 65.7948H126.695ZM137.236 75.4654C134.737 75.4654 132.828 73.4942 132.828 70.9826C132.828 68.4813 134.737 66.5411 137.236 66.5411C139.718 66.5411 141.643 68.4865 141.643 70.9826C141.638 73.4942 139.718 75.4654 137.236 75.4654ZM137.236 65.7793C134.266 65.7793 131.993 68.049 131.993 70.9775C131.993 73.9214 134.266 76.2425 137.236 76.2425C140.22 76.2425 142.462 73.9214 142.462 70.9775C142.462 68.049 140.215 65.7793 137.236 65.7793ZM135.797 54.925C133.309 54.925 131.548 52.9744 131.548 50.4371C131.548 47.8586 133.309 45.9286 135.797 45.9286C138.305 45.9286 140.087 47.8586 140.087 50.4371C140.087 52.9744 138.305 54.925 135.797 54.925ZM135.797 42.7943C131.389 42.7943 128.139 46.083 128.139 50.4371C128.139 54.7912 131.389 58.1005 135.797 58.1005C140.246 58.1005 143.476 54.7912 143.476 50.4371C143.476 46.083 140.246 42.7943 135.797 42.7943ZM160.344 71.0084H165.463V70.2364H160.344V66.6954H165.755V65.9234H159.55V76.0521H165.934V75.2801H160.344V71.0084ZM212.545 72.2076L214.521 67.3748L216.497 72.2076H212.545ZM214.429 65.7948L210.062 76.0624H210.989L212.253 72.9435H216.809L218.074 76.0624H219L214.634 65.7948H214.429ZM212.381 57.7608V42.9898H208.951V50.3856H202.347V42.9898H198.918V57.7505H202.347V53.5148H208.951V57.7557H212.381V57.7608ZM223.638 71.7907C222.794 71.7907 222.133 71.7083 221.611 71.5899V66.6903H224.365C226.731 66.6903 227.55 67.663 227.55 69.0681C227.55 70.8179 226.244 71.7907 223.638 71.7907ZM228.41 69.0475C228.41 67.1278 227.145 65.9286 224.432 65.9286H220.792V76.0573H221.611V72.3156C222.133 72.4494 222.778 72.5318 223.638 72.5318C224.191 72.5318 224.698 72.4906 225.159 72.4083L227.616 76.0573H228.543L225.947 72.223C227.534 71.7238 228.41 70.6584 228.41 69.0475ZM201.083 70.9826C201.083 73.9523 203.382 76.2477 206.351 76.2477C207.144 76.2477 207.907 76.0984 208.542 75.7639V74.9662C207.912 75.3059 207.185 75.45 206.366 75.45C203.853 75.45 201.917 73.5045 201.917 70.9775C201.917 68.4659 203.853 66.5462 206.366 66.5462C207.185 66.5462 207.912 66.7057 208.542 67.03V66.2323C207.912 65.908 207.16 65.7742 206.366 65.7742C203.392 65.7793 201.083 68.0336 201.083 70.9826ZM174.074 72.2076L176.05 67.3748L178.026 72.2076H174.074ZM175.953 65.7948L171.586 76.0624H172.512L173.777 72.9435H178.333L179.597 76.0624H180.524L176.157 65.7948H175.953ZM198.232 71.7907C198.232 74.0346 196.926 75.4654 194.791 75.4654C192.641 75.4654 191.341 74.0346 191.341 71.7907V65.9286H190.522V71.7649C190.522 74.5596 192.216 76.2477 194.797 76.2477C197.392 76.2477 199.056 74.5596 199.056 71.7649V65.9286H198.237V71.7907H198.232ZM166.635 55.0434C166.011 55.0434 165.325 54.9868 164.716 54.9044V46.0418H166.656C169.594 46.0418 171.238 48.0284 171.238 50.4319C171.238 53.0362 169.63 55.0434 166.635 55.0434ZM174.688 50.3547C174.688 46.1396 171.494 43.0053 166.595 43.0053H161.424V57.4211C162.305 57.7557 164.204 58.0902 166.185 58.0902C171.376 58.0954 174.688 54.9044 174.688 50.3547ZM181.256 70.9826C181.256 73.7515 183.258 75.9389 185.93 76.222C186.227 76.4896 186.508 76.8962 186.508 77.3954C186.508 78.0182 186.094 78.327 185.515 78.327C185.285 78.327 184.978 78.26 184.804 78.1262V78.7335C185.034 78.8828 185.408 78.9754 185.73 78.9754C186.616 78.9754 187.21 78.4505 187.21 77.6116C187.21 77.0454 186.887 76.5565 186.565 76.2477C187.343 76.2477 188.095 76.0984 188.715 75.7639V74.9662C188.085 75.3059 187.358 75.45 186.539 75.45C184.026 75.45 182.091 73.5045 182.091 70.9775C182.091 68.4659 184.026 66.5462 186.539 66.5462C187.358 66.5462 188.085 66.7057 188.715 67.03V66.2323C188.085 65.908 187.333 65.7742 186.539 65.7742C183.565 65.7793 181.256 68.0336 181.256 70.9826ZM118.018 51.3635H121.601C123.03 51.3635 123.659 52.1509 123.659 53.1545C123.659 54.3949 122.758 55.2801 120.25 55.2801C119.507 55.2801 118.545 55.2029 118.018 55.0434V51.3635ZM118.018 45.8051H120.839C122.031 45.8051 122.543 46.4741 122.543 47.2616C122.543 48.049 122.036 48.7387 120.879 48.7387H118.018V45.8051ZM127.089 53.1906C127.089 51.1834 125.738 49.9018 124.268 49.5055C125.128 48.996 125.814 47.8535 125.814 46.7109C125.814 44.503 124.171 43.0104 121.269 43.0104H114.747V57.4263C115.724 57.802 117.762 58.0954 119.82 58.0954C124.504 58.0954 127.089 56.3043 127.089 53.1906ZM133.852 26.4124H136.606C138.971 26.4124 139.79 27.3851 139.79 28.7902C139.79 30.5452 138.485 31.5179 135.879 31.5179C135.034 31.5179 134.374 31.4355 133.852 31.3172V26.4124ZM133.852 32.048C134.374 32.1818 135.019 32.2642 135.879 32.2642C136.432 32.2642 136.939 32.223 137.394 32.1406L139.851 35.7896H140.778L138.183 31.9554C139.77 31.4561 140.64 30.3908 140.64 28.7799C140.64 26.8601 139.375 25.661 136.662 25.661H133.022V35.7896H133.841V32.048H133.852ZM126.777 27.102L128.753 31.9348H124.806L126.777 27.102ZM124.509 32.6656H129.065L130.33 35.7845H131.256L126.889 25.5169H126.685L122.318 35.7845H123.245L124.509 32.6656ZM180.084 42.9898H176.674V57.7608H180.084V42.9898ZM193.056 64.5647L197.075 63.4582V62.7428L193.056 63.8905V64.5647ZM221.709 45.9235C224.217 45.9235 225.998 47.8535 225.998 50.4319C225.998 52.9744 224.217 54.9198 221.709 54.9198C219.221 54.9198 217.46 52.9693 217.46 50.4319C217.46 47.8535 219.221 45.9235 221.709 45.9235ZM221.709 58.0954C226.157 58.0954 229.387 54.786 229.387 50.4319C229.387 46.0779 226.157 42.7891 221.709 42.7891C217.301 42.7891 214.05 46.0779 214.05 50.4319C214.05 54.786 217.301 58.0954 221.709 58.0954ZM186.078 49.6496C189.048 52.2539 192.918 53.839 192.918 57.7557H196.266C196.266 57.766 196.266 57.7763 196.266 57.7557V42.9898H192.918V51.0393C189.949 48.4659 186.078 46.9322 186.078 43.0001H182.73V57.7608H186.078V49.6496ZM115.571 26.4124H117.961C120.342 26.4124 121.238 27.6116 121.238 29.032C121.238 30.7871 120.096 31.9914 117.465 31.9914C116.63 31.9914 116.052 31.9245 115.571 31.801V26.4124ZM115.571 32.5472C116.052 32.6708 116.63 32.7377 117.465 32.7377C120.475 32.7377 122.088 31.3069 122.088 29.0372C122.088 27.1072 120.772 25.661 118.028 25.661H114.752V35.7896H115.571V32.5472ZM172.405 35.0176H166.815V30.7356H171.934V29.9636H166.815V26.4227H172.231V25.6507H166.026V35.7793H172.41V35.0176H172.405ZM125.886 63.2009C125.538 63.2009 125.282 63.2832 125.093 63.3758C124.919 63.4685 124.77 63.5766 124.729 63.6435V64.4515C124.78 64.3692 124.929 64.2353 125.134 64.1427C125.308 64.0501 125.548 63.978 125.886 63.978C126.275 63.978 126.582 64.0861 126.895 64.1942C127.192 64.3022 127.488 64.4103 127.877 64.4103C128.159 64.4103 128.389 64.3434 128.563 64.2508C128.779 64.1427 128.927 63.978 128.994 63.9008V63.0928C128.927 63.2009 128.763 63.3758 128.523 63.4994C128.348 63.5817 128.149 63.6486 127.877 63.6486C127.504 63.6486 127.207 63.5405 126.925 63.4479C126.613 63.3244 126.306 63.2009 125.886 63.2009Z" fill="white"/>
<path d="M235.244 68.1724C235.244 69.4179 234.292 70.4009 232.996 70.4009C231.722 70.4009 230.759 69.4179 230.759 68.1724C230.759 66.9269 231.722 65.9336 232.996 65.9336C234.292 65.9336 235.244 66.9269 235.244 68.1724ZM234.839 68.1724C234.839 67.1225 234.046 66.335 232.996 66.335C231.973 66.335 231.169 67.1225 231.169 68.1724C231.169 69.2326 231.962 69.9995 232.996 69.9995C234.046 69.9995 234.839 69.2326 234.839 68.1724ZM233.498 68.4143L234.097 69.315H233.713L233.17 68.4812C233.078 68.4915 232.986 68.5018 232.889 68.5018C232.72 68.5018 232.592 68.4812 232.469 68.4658V69.3201H232.126V66.9423H233.15C233.739 66.9423 234.056 67.2306 234.056 67.6732C234.056 68.0437 233.851 68.2959 233.498 68.4143ZM232.894 68.229C233.472 68.229 233.703 68.0489 233.703 67.6783C233.703 67.3798 233.519 67.2203 233.058 67.2203H232.469V68.193C232.587 68.2084 232.725 68.229 232.894 68.229Z" fill="#EC681C"/>
<path d="M235.244 68.1724C235.244 69.4179 234.292 70.4009 232.996 70.4009C231.722 70.4009 230.759 69.4179 230.759 68.1724C230.759 66.9269 231.722 65.9336 232.996 65.9336C234.292 65.9336 235.244 66.9269 235.244 68.1724ZM234.839 68.1724C234.839 67.1225 234.046 66.335 232.996 66.335C231.973 66.335 231.169 67.1225 231.169 68.1724C231.169 69.2326 231.962 69.9995 232.996 69.9995C234.046 69.9995 234.839 69.2326 234.839 68.1724ZM233.498 68.4143L234.097 69.315H233.713L233.17 68.4812C233.078 68.4915 232.986 68.5018 232.889 68.5018C232.72 68.5018 232.592 68.4812 232.469 68.4658V69.3201H232.126V66.9423H233.15C233.739 66.9423 234.056 67.2306 234.056 67.6732C234.056 68.0437 233.851 68.2959 233.498 68.4143ZM232.894 68.229C233.472 68.229 233.703 68.0489 233.703 67.6783C233.703 67.3798 233.519 67.2203 233.058 67.2203H232.469V68.193C232.587 68.2084 232.725 68.229 232.894 68.229Z" fill="white"/>
</svg>
